<svg xmlns="http://www.w3.org/2000/svg" width="1600" height="900" viewBox="0 0 1600 900">
<defs>
  <linearGradient id="bg" x1="0" y1="0" x2="1" y2="1"><stop offset="0" stop-color="#f7f8fb"/><stop offset="1" stop-color="#eef2f7"/></linearGradient>
  <filter id="shadow" x="-20%" y="-20%" width="140%" height="140%"><feDropShadow dx="0" dy="22" stdDeviation="26" flood-color="#000" flood-opacity="0.18"/></filter>
</defs>
<rect width="1600" height="900" rx="28" fill="url(#bg)"/>
<text x="92" y="92" font-family="Inter,Segoe UI,Arial,sans-serif" font-size="22" font-weight="700" letter-spacing="2" fill="#667085">LEADERSHIP REPORTING</text>
<text x="92" y="140" font-family="Inter,Segoe UI,Arial,sans-serif" font-size="44" font-weight="750" fill="#101828">The weekly review should not start in PowerPoint</text>
<text x="92" y="180" font-family="Inter,Segoe UI,Arial,sans-serif" font-size="22" fill="#667085">ChannelOS already has the current story. The Head of Channels can turn it into the deck.</text>

<g filter="url(#shadow)"><rect x="92" y="230" width="1416" height="560" rx="24" fill="#ffffff" stroke="#e4e7ec"/></g>

<!-- app header -->
<rect x="92" y="230" width="1416" height="62" rx="24" fill="#f8fafc"/>
<circle cx="126" cy="261" r="9" fill="#f97316"/>
<text x="148" y="269" font-family="Inter,Segoe UI,Arial,sans-serif" font-size="20" font-weight="750" fill="#101828">Channel review — Q3</text>
<rect x="1306" y="244" width="166" height="36" rx="10" fill="#fff3e8" stroke="#f97316" stroke-opacity="0.35"/>
<text x="1389" y="268" text-anchor="middle" font-family="Inter,Segoe UI,Arial,sans-serif" font-size="15" font-weight="750" fill="#f97316">Create PowerPoint</text>

<!-- thumbnails -->
<rect x="116" y="322" width="252" height="424" rx="14" fill="#f8fafc" stroke="#e4e7ec"/>
<text x="140" y="354" font-family="Inter,Segoe UI,Arial,sans-serif" font-size="14" font-weight="750" fill="#667085">REPORT SECTIONS</text>

<g>
<rect x="140" y="380" width="204" height="72" rx="10" fill="#ffffff" stroke="#f97316" stroke-width="2"/>
<text x="154" y="406" font-family="Inter,Segoe UI,Arial,sans-serif" font-size="14" font-weight="750" fill="#101828">01 · Executive summary</text>
<rect x="154" y="421" width="116" height="7" rx="3.5" fill="#e4e7ec"/>
<rect x="154" y="435" width="82" height="7" rx="3.5" fill="#e4e7ec"/>
</g>
<g>
<rect x="140" y="466" width="204" height="72" rx="10" fill="#ffffff" stroke="#e4e7ec"/>
<text x="154" y="492" font-family="Inter,Segoe UI,Arial,sans-serif" font-size="14" font-weight="700" fill="#101828">02 · Target vs actual</text>
<rect x="154" y="509" width="164" height="8" rx="4" fill="#eaf8ef"/><rect x="154" y="509" width="112" height="8" rx="4" fill="#22c55e"/>
</g>
<g>
<rect x="140" y="552" width="204" height="72" rx="10" fill="#ffffff" stroke="#e4e7ec"/>
<text x="154" y="578" font-family="Inter,Segoe UI,Arial,sans-serif" font-size="14" font-weight="700" fill="#101828">03 · Pipeline &amp; attribution</text>
<rect x="154" y="596" width="52" height="12" rx="3" fill="#e4e7ec"/><rect x="214" y="588" width="52" height="20" rx="3" fill="#e4e7ec"/><rect x="274" y="580" width="44" height="28" rx="3" fill="#e4e7ec"/>
</g>
<g>
<rect x="140" y="638" width="204" height="72" rx="10" fill="#ffffff" stroke="#e4e7ec"/>
<text x="154" y="664" font-family="Inter,Segoe UI,Arial,sans-serif" font-size="14" font-weight="700" fill="#101828">04 · Partner movement</text>
<circle cx="160" cy="690" r="5" fill="#22c55e"/><rect x="174" y="685" width="128" height="7" rx="3.5" fill="#e4e7ec"/>
</g>

<!-- current slide canvas -->
<rect x="402" y="322" width="1068" height="424" rx="16" fill="#f8fafc" stroke="#e4e7ec"/>
<text x="448" y="378" font-family="Inter,Segoe UI,Arial,sans-serif" font-size="16" font-weight="750" letter-spacing="1.2" fill="#667085">WEEKLY CHANNEL REVIEW</text>
<text x="448" y="424" font-family="Inter,Segoe UI,Arial,sans-serif" font-size="34" font-weight="750" fill="#101828">What changed, what matters, what needs attention</text>

<!-- summary cards -->
<rect x="448" y="466" width="214" height="98" rx="14" fill="#ffffff" stroke="#e4e7ec"/>
<text x="468" y="493" font-family="Inter,Segoe UI,Arial,sans-serif" font-size="13" fill="#667085">TARGET PROGRESS</text>
<text x="468" y="535" font-family="Inter,Segoe UI,Arial,sans-serif" font-size="28" font-weight="800" fill="#22c55e">On track</text>
<rect x="682" y="466" width="214" height="98" rx="14" fill="#ffffff" stroke="#e4e7ec"/>
<text x="702" y="493" font-family="Inter,Segoe UI,Arial,sans-serif" font-size="13" fill="#667085">PIPELINE</text>
<text x="702" y="535" font-family="Inter,Segoe UI,Arial,sans-serif" font-size="28" font-weight="800" fill="#101828">Updated</text>
<rect x="916" y="466" width="214" height="98" rx="14" fill="#ffffff" stroke="#e4e7ec"/>
<text x="936" y="493" font-family="Inter,Segoe UI,Arial,sans-serif" font-size="13" fill="#667085">PARTNER MOVEMENT</text>
<text x="936" y="535" font-family="Inter,Segoe UI,Arial,sans-serif" font-size="28" font-weight="800" fill="#101828">3 changes</text>
<rect x="1150" y="466" width="270" height="98" rx="14" fill="#ffffff" stroke="#e4e7ec"/>
<text x="1170" y="493" font-family="Inter,Segoe UI,Arial,sans-serif" font-size="13" fill="#667085">NEEDS ATTENTION</text>
<text x="1170" y="535" font-family="Inter,Segoe UI,Arial,sans-serif" font-size="28" font-weight="800" fill="#f97316">2 items</text>

<!-- lower story -->
<text x="448" y="612" font-family="Inter,Segoe UI,Arial,sans-serif" font-size="17" font-weight="750" fill="#101828">What moved this week</text>
<circle cx="458" cy="646" r="5" fill="#22c55e"/><text x="478" y="652" font-family="Inter,Segoe UI,Arial,sans-serif" font-size="16" fill="#101828">PAM context updated for a strategic relationship.</text>
<circle cx="458" cy="682" r="5" fill="#f97316"/><text x="478" y="688" font-family="Inter,Segoe UI,Arial,sans-serif" font-size="16" fill="#101828">One attribution remains in Needs Review.</text>
<text x="1048" y="612" font-family="Inter,Segoe UI,Arial,sans-serif" font-size="17" font-weight="750" fill="#101828">Inputs behind the report</text>
<text x="1048" y="649" font-family="Inter,Segoe UI,Arial,sans-serif" font-size="15" fill="#667085">HubSpot · targets · activity · Channel Radar</text>
<text x="1048" y="678" font-family="Inter,Segoe UI,Arial,sans-serif" font-size="15" fill="#667085">PAM-written relationship background · current status</text>

<text x="92" y="846" font-family="Inter,Segoe UI,Arial,sans-serif" font-size="20" fill="#667085">Operate during the week. Create the leadership PowerPoint when it is needed. Export the data when the next workflow lives elsewhere.</text>
</svg>